<svg xmlns="http://www.w3.org/2000/svg" xmlns:xlink="http://www.w3.org/1999/xlink" width="673.657" height="319.526" viewBox="0 0 673.657 319.526"><defs><filter id="Path_1412" x="1" y="299.711" width="672.657" height="19.816" filterUnits="userSpaceOnUse"><feGaussianBlur stdDeviation="3"></feGaussianBlur></filter></defs><g id="Group_968" data-name="Group 968" transform="translate(-1110 -107.075)"><g id="Group_967" data-name="Group 967"><path id="Path_1411" data-name="Path 1411" d="M2294.88,1459.547s-35.829-92.7,16.586-148.044c67.606-71.39,154.972-11.717,187.754-13.457s34.628-70.238,132.576-78.42c75.734-6.326,200.111-6.825,173.577,105.089-20.174,85.087,92.069,41.014,70.214,135.011Z" transform="translate(-1142.111 -1047.806)" fill="#ebf2f9"></path><g transform="matrix(1, 0, 0, 1, 1110, 107.08)" filter="url(#Path_1412)"><path id="Path_1412-2" data-name="Path 1412" d="M2785.842,2438.648H2132.823a.64.64,0,0,1-.638-.638v-.54a.64.64,0,0,1,.638-.638h653.019" transform="translate(-2131.19 -2133.12)" fill="none"></path></g><g id="Group_946" data-name="Group 946" transform="translate(1151.713 210.334)"><g id="Group_943" data-name="Group 943" transform="translate(12.675 39.915)"><path id="Path_1413" data-name="Path 1413" d="M2720.46,1836.423l2.178,1.769s5.958-2.136,7.3,4.944c0,0,.358,3.018-1.553,3.023s-1.123-.33-3.83-.25-4.951-1.348-5.347-3.544l-1.3-1.861Z" transform="translate(-2655.446 -1794.648)" fill="#ea8e50"></path><path id="Path_1414" data-name="Path 1414" d="M2466.858,1670.8c1.738-1.815,1.6-3.156,1.6-3.156s-20.123-16.475-22.164-17.818c-1.391-.915-16.211-14.053-23.138-22.062-3.436-3.973-7.693-2.432-12.563-1.034l-4.01,1.151c-4.842,1.389-6.1,8.162-2.128,11.453,11.19,9.269,29.805,19.694,33.289,21.885,8.647,5.439,25.572,11.9,25.572,11.9A10.725,10.725,0,0,0,2466.858,1670.8Z" transform="translate(-2402.09 -1625.228)" fill="#1e3d70"></path></g><path id="Path_1415" data-name="Path 1415" d="M2819.56,2367.349s4.883,3.659,12.367,1.726c0,0,6.033-1.375,7.357,1.634,0,0-9.253,4.7-11.594,5.987a28,28,0,0,0-4.908,3.681,2.427,2.427,0,0,1-3.514-.271c-.407-.5-.873-1.1-1.383-1.788-1.427-1.934-4.751-8.179-4.751-8.179Z" transform="translate(-2719.151 -2180.641)" fill="#233862"></path><path id="Path_1416" data-name="Path 1416" d="M2554.765,2004.081s-2.974,6.857-9.838,5.6c0,0-14.007-11.567-23.615-23.584a53.358,53.358,0,0,1-7.338-11.468c-6.372-14.751-23.568-36.753-34.5-47.9l27.355-9.9s8.762,17.626,20.42,39.276C2535.649,1971.7,2545.552,1989.389,2554.765,2004.081Z" transform="translate(-2451.49 -1819.231)" fill="#2b478b"></path><g id="Group_944" data-name="Group 944" transform="translate(29.836 9.934)"><path id="Path_1417" data-name="Path 1417" d="M2563.879,1518.385a32.923,32.923,0,0,0,.159-5.033,1.883,1.883,0,0,1,1.085-1.8l8.079-3.749a1.844,1.844,0,0,0,.956-2.3l-2.788-7.666a1.8,1.8,0,0,0-2.116-1.13l-7.968,1.955a1.847,1.847,0,0,1-2.014-.835,32.828,32.828,0,0,0-6.766-7.892,1.861,1.861,0,0,1-.459-2.24l2.2-4.483a1.866,1.866,0,0,0-.676-2.4l-6.832-4.33a1.851,1.851,0,0,0-2.463.442l-4.794,6.3a32.99,32.99,0,0,0-10.685-.908,1.823,1.823,0,0,1-1.8-1.047l-3.024-6.516a1.889,1.889,0,0,0-2.359-.98l-7.53,2.739a1.912,1.912,0,0,0-1.2,2.252l1.634,6.66a1.852,1.852,0,0,1-.788,2,32.83,32.83,0,0,0-5.855,4.822,1.878,1.878,0,0,1-2.182.379l-7.273-3.573a1.874,1.874,0,0,0-2.409.679l-4.312,6.8a1.879,1.879,0,0,0,.449,2.5l7.081,5.389a1.845,1.845,0,0,1,.661,1.949,32.879,32.879,0,0,0-.929,4.974q-.147,1.357-.181,2.7a1.925,1.925,0,0,1-1.111,1.7l-7.76,3.6a1.833,1.833,0,0,0-.951,2.29l2.755,7.574a1.916,1.916,0,0,0,2.257,1.206l6.314-1.55a1.867,1.867,0,0,1,2.106.951,32.832,32.832,0,0,0,5.98,8.176,1.89,1.89,0,0,1,.368,2.173l-3.222,6.558a1.921,1.921,0,0,0,.7,2.469l6.789,4.3a1.854,1.854,0,0,0,2.467-.443l4.7-6.179a1.91,1.91,0,0,1,2.059-.67,32.816,32.816,0,0,0,5.67,1.124q1.574.17,3.125.19a1.867,1.867,0,0,1,1.669,1.081l3.068,6.611a1.908,1.908,0,0,0,2.384.99l7.541-2.743a1.878,1.878,0,0,0,1.182-2.212l-1.3-5.314a1.874,1.874,0,0,1,.949-2.108,32.827,32.827,0,0,0,10.061-8.136,1.854,1.854,0,0,1,2.245-.478l5.884,2.891a1.869,1.869,0,0,0,2.4-.677l4.309-6.8a1.892,1.892,0,0,0-.452-2.517l-6.793-5.17a1.866,1.866,0,0,1-.7-1.84Q2563.729,1519.761,2563.879,1518.385Zm-25.559,12.872c-16.969,6.067-31.068-11.572-21.316-26.827a17.251,17.251,0,0,1,7.313-5.882c16.991-6.256,31.2,11.3,21.634,26.572A17.451,17.451,0,0,1,2538.32,1531.257Z" transform="translate(-2488.846 -1473.659)" fill="#afcdfb"></path></g><path id="Path_1418" data-name="Path 1418" d="M2527.247,1956.1l-5.935,29.992a53.358,53.358,0,0,1-7.338-11.468c-6.372-14.751-23.568-36.753-34.5-47.9l27.355-9.9S2515.589,1934.451,2527.247,1956.1Z" transform="translate(-2451.49 -1819.231)" fill="#233862"></path><path id="Path_1419" data-name="Path 1419" d="M2568.05,2375.3s-.3,5.471,6.334,6.2c0,0,4,.082,4.013,3.564h-19.49a14.992,14.992,0,0,1-.7-4.414c-.1-2.31,2.239-8.35,2.239-8.35Z" transform="translate(-2514.653 -2184.616)" fill="#233862"></path><path id="Path_1420" data-name="Path 1420" d="M2464.634,1911.9s12.186,13.391,19.922,37.515c4.209,13.126-7.715,46.127-10.039,57.593,0,0-8,.679-13.468-1.436,0,0-.416-23.682,2.783-41.935,1.79-10.215-16.045-21.848-23.839-40.305-5.3-12.557,1.148-12.344,9.075-12.646Z" transform="translate(-2418.27 -1814.308)" fill="#2b478b"></path><path id="Path_1421" data-name="Path 1421" d="M2417.5,1547.78c-6.78,3.828-20.661.3-20.661.3s5.637-6.444,3.075-16.823l5.324,2.7,5.718,2.9a47.467,47.467,0,0,1,.627,5.125c.066.848.124,1.794.165,2.83A17.783,17.783,0,0,1,2417.5,1547.78Z" transform="translate(-2385.199 -1509.927)" fill="#ffb07b"></path><path id="Path_1422" data-name="Path 1422" d="M2421.641,1660.671c0,1.191-1.373,1.762-1.664,1.82-2.735.5-10.371,3.47-17.249,4.151a55.153,55.153,0,0,1-17.077-1.156c-.782-.157-2.619-.652-2.75-1.4-.163-.819-22.787-46.122-5.2-65.582.413-.456,3.885.366,7.06,1.119a13.035,13.035,0,0,0,8.024-.656l2.977,1.567c3.656,2.037,10.575,9.276,11.385,14.956.411,2.889,2.063,5.028,2.541,7.569q.266,1.41.543,2.753.541,2.633,1.114,5.013c1.034,4.3,2.126,7.994,3.2,11.189,1.141,3.392,2.26,6.214,3.26,8.574,1.3,3.061,2.393,5.348,3.077,7.1A8.743,8.743,0,0,1,2421.641,1660.671Z" transform="translate(-2364.482 -1563.769)" fill="#2a4e96"></path><path id="Path_1423" data-name="Path 1423" d="M2448.752,1720.041c-31.937-15.047-43-43.94-43-43.94s25.948,9.572,32.348,12.064q.541,2.632,1.114,5.013c1.034,4.3,2.127,7.995,3.2,11.189,1.141,3.392,2.26,6.214,3.26,8.574C2446.972,1716,2448.068,1718.289,2448.752,1720.041Z" transform="translate(-2392.354 -1626.123)" fill="#1e3d70"></path><g id="Group_945" data-name="Group 945" transform="translate(9.115 41.343)"><path id="Path_1424" data-name="Path 1424" d="M2711.756,1853.439l2.76,1.012s5.526-3.908,8.968,2.448c0,0,1.244,2.776-.726,3.379s-1.254.036-4.023.958-5.5.258-6.543-1.72l-1.876-1.376Z" transform="translate(-2645.788 -1809.584)" fill="#ffb07b"></path><path id="Path_1425" data-name="Path 1425" d="M2452.332,1680.2c1.02-2.662,1.486-3.868,1.486-3.868s-20.853-17-22.978-18.456c-1.448-.994-15.863-11.768-22.891-20.165a14.707,14.707,0,0,0-14.3-4.955l-4.378.918a6.51,6.51,0,0,0-2.9,11.314c11.548,9.9,31.026,21.383,34.658,23.771,9.016,5.929,28.957,14.237,28.957,14.237A5.134,5.134,0,0,0,2452.332,1680.2Z" transform="translate(-2384.093 -1632.447)" fill="#2a4e96"></path></g><path id="Path_1426" data-name="Path 1426" d="M2426.75,1552.951c-6.667.374-11-5.131-11-5.131a53,53,0,0,0,4.658-2.9l5.718,2.9A47.467,47.467,0,0,1,2426.75,1552.951Z" transform="translate(-2400.369 -1520.892)" fill="#ea8e50"></path><path id="Path_1427" data-name="Path 1427" d="M2404.2,1481.927s-10.1,7.25-14.52.889-8.7-9.709-2.434-14.607,9.216-3.35,11.207-1.586S2406.712,1479.877,2404.2,1481.927Z" transform="translate(-2374.977 -1456.713)" fill="#ffb07b"></path><path id="Path_1428" data-name="Path 1428" d="M2362.55,1427.6a16.29,16.29,0,0,0-1.177-4.166s-.634,2.626-5.434,2.264-12.406.472-14.941,5.941a11.54,11.54,0,0,0-.433,1.073,12.65,12.65,0,0,1-.57-3.03,9.337,9.337,0,0,0,0,5.3h0c-.014.086-.025.172-.038.258-1.059.9-1.949,3.68-1.949,3.68a3.333,3.333,0,0,1,1.794-1.6c-.021,4.256,1.7,8.416,4.734,9.654,4.43,1.811,4.394.43,8.849,3.384,0,0,1.2-1.483.38-2.479s-3.894-2.445-2.174-3.894,2.355.181,2.989-.815-2.536-3.894,1.539-6.611S2362.912,1430.048,2362.55,1427.6Z" transform="translate(-2338.009 -1423.437)" fill="#233862"></path></g><g id="Group_948" data-name="Group 948" transform="translate(1595.627 214.418)"><path id="Path_1429" data-name="Path 1429" d="M4842.942,2380.284s.544,8.778,2.243,8.9c.226.017,8.613.017,8.613.017h10.719a3.533,3.533,0,0,0-3.212-3.187c-3.13-.545-8.368-2.745-10.264-6.881C4849.046,2374.784,4842.942,2380.284,4842.942,2380.284Z" transform="translate(-4791.374 -2192.836)" fill="#163560"></path><path id="Path_1430" data-name="Path 1430" d="M4601.434,1928.114a73.574,73.574,0,0,0,5.118,8.167c5.632,7.928,11.762,14.465,12.83,20.644a30.482,30.482,0,0,0,.99,3.955c.446,1.416,1,2.9,1.634,4.443a141.335,141.335,0,0,0,9.531,18.172c6.168,10.193,11.969,18.7,11.969,18.7l10.637-.505c-.426-1.189-5.065-15.262-11.271-32.461-2.521-6.982-5.2-14.409-7.786-21.571q-.517-1.434-1.03-2.853c-.791-2.192-1.568-4.349-2.328-6.45-5.828-16.15-10.469-29.01-10.469-29.01s-23.292-9.839-25.71-3.464C4593.554,1911.135,4595.178,1916.286,4601.434,1928.114Z" transform="translate(-4592.27 -1812.81)" fill="#599dad"></path><path id="Path_1431" data-name="Path 1431" d="M4714.363,2336.7s-3.9,3.611-3.136,6.176,4.276,4.276,4.751,7.412,2.375,4.846,4.086,4.846h8.154s1.259-2.207-1.782-2.872-4.187-4.35-4-7.771a61.14,61.14,0,0,0-.285-7.981l-6.461-1.521Z" transform="translate(-4685.633 -2158.767)" fill="#233862"></path><path id="Path_1432" data-name="Path 1432" d="M4629.218,1925.984s24.509,39.756,24.509,42.918c0,7-18.518,47.277-18.518,47.277s-9.83-5.193-9.436-8.839c0,0,5.9-28.277,7.612-32.822s-30.976-21.669-32.69-42.359Z" transform="translate(-4597.044 -1830.663)" fill="#6bb7bf"></path><path id="Path_1433" data-name="Path 1433" d="M4797.963,1822.632s5.055,2.874,6.47,2.874,6.969-1.073,8.518-.282a18.107,18.107,0,0,1,4.876,5.014c.946,1.87-3.807,1.044-6.052-.548a1.415,1.415,0,0,0-1.122-.232c-1.163.254-3.581.693-4.747.261-1.569-.581-9.835-1.226-9.835-1.226Z" transform="translate(-4753.773 -1747.755)" fill="#e49963"></path><path id="Path_1434" data-name="Path 1434" d="M4611.225,1603.647s5.24,37.241,13.916,40.577c4.281,1.646,23.2,5.377,28.8,5.751,0,0,1.372-1.112,1.037-5.639,0,0-19.823-7.278-22.639-11.235-4.191-5.89,2.6-24.063-2.657-29.6S4615.563,1595.6,4611.225,1603.647Z" transform="translate(-4605.491 -1567.915)" fill="#ed7d2b"></path><path id="Path_1435" data-name="Path 1435" d="M4639.291,1547.33c-7,1.811-18.615-4.679-18.615-4.679a17.189,17.189,0,0,0,6.18-9.686c.085-.336.16-.679.229-1.032l3.6-.762,5.35,4.793a46.045,46.045,0,0,1-.792,5.411c-.116.6-.249,1.237-.4,1.919A16.5,16.5,0,0,1,4639.291,1547.33Z" transform="translate(-4613.072 -1513.945)" fill="#e49963"></path><path id="Path_1436" data-name="Path 1436" d="M4582.423,1611.679c1,13.493-.316,34.015.822,37.568.982,3.067,12.173,1.244,16.641.22,1.653-.379,3.656-.92,5.724-1.56,5.769-1.786,12.056-4.338,12.73-6.231a1.582,1.582,0,0,0,.063-.218,1.734,1.734,0,0,0-.012-.794c-.225-.965-1.091-2.009-1.193-4.4-.114-2.669-.1-5.811-.2-9.19,0-.38-.01-.8-.051-1.175l0-.138c0-.072,0-.144-.005-.216-.1-3.769-.294-7.73-.522-11.66-.146-2.468-.313-4.912-.507-7.253a96.941,96.941,0,0,0-2.079-14.818,23.8,23.8,0,0,0-7.644-11.8l-2.129-1.826a12.31,12.31,0,0,1-7.726-1.029c-2.75-1.306-3.7-2.242-4.178-1.889C4585.806,1580.171,4581.239,1595.184,4582.423,1611.679Z" transform="translate(-4582.236 -1549.262)" fill="#ff574c"></path><path id="Path_1437" data-name="Path 1437" d="M4633.825,1731.593c5.769-1.787,12.056-4.338,12.73-6.231a1.655,1.655,0,0,0,.063-.218q-.005-.4-.012-.793c-.225-.965-1.092-2.01-1.193-4.4-.114-2.669-.1-5.811-.2-9.19-.005-.38-.01-.8-.052-1.174l0-.138c0-.072,0-.144,0-.216l-23.324-29.715S4606.154,1712.164,4633.825,1731.593Z" transform="translate(-4610.451 -1632.947)" fill="#ef463a"></path><path id="Path_1438" data-name="Path 1438" d="M4661.092,1535.964a46.092,46.092,0,0,1-.791,5.411c-5.225-1.688-7.594-6.407-8.385-8.409.085-.336.161-.679.229-1.032l3.6-.762Z" transform="translate(-4638.133 -1513.945)" fill="#d68d5d"></path><path id="Path_1439" data-name="Path 1439" d="M4660.484,1488.49s-11.393-1.9-10.1-8.978.694-12.088,8.022-11.173,8.245,3.873,8.387,6.34S4663.481,1488.8,4660.484,1488.49Z" transform="translate(-4636.823 -1463.455)" fill="#e49963"></path><g id="Group_947" data-name="Group 947" transform="translate(40.49 59.276)"><rect id="Rectangle_253" data-name="Rectangle 253" width="1.056" height="27.661" transform="matrix(-0.951, -0.309, 0.309, -0.951, 29.018, 26.632)" fill="#4a75cb"></rect><rect id="Rectangle_254" data-name="Rectangle 254" width="29.027" height="1.737" transform="matrix(-1, -0.021, 0.021, -1, 29.02, 26.633)" fill="#4a75cb"></rect></g><path id="Path_1440" data-name="Path 1440" d="M4789.875,1860.873s9.324,2.458,12.821,2.2,6.4-1.921,6.845-2.789,1.364-2.408-1.017-2.124-5.63.79-5.731.333,1.94-.414,1.94-.414.617-.9-.16-.93-3.043-.648-3.885-.226-1.619,1.975-2.234,1.91-7.8-3.238-7.8-3.238Z" transform="translate(-4748.803 -1774.198)" fill="#e49963"></path><path id="Path_1441" data-name="Path 1441" d="M4622.914,1614.872s1.1,37.592,9.358,41.864c4.073,2.108,22.467,7.9,27.988,8.891,0,0,1.486-.954,1.653-5.491,0,0-18.9-9.419-21.263-13.663-3.516-6.316,5.239-23.63.622-29.708S4628.114,1607.348,4622.914,1614.872Z" transform="translate(-4614.868 -1577.612)" fill="#ff574c"></path><path id="Path_1442" data-name="Path 1442" d="M4642.177,1463.106a5.39,5.39,0,0,1,1.367-3.819s-.522-2.434.441-2.836,1.164,1.645,1.6,1.324a9.84,9.84,0,0,0,3.25-4.093c.843-2.247,8.555.474,9.454.879s3.788-1.08,4.35-2.284a16.907,16.907,0,0,1-2.327-2.247c-.722-.963-5.778-7.464-12.84-5.618s-8.025,5.217-7.624,8.105S4639.284,1462.137,4642.177,1463.106Z" transform="translate(-4628.394 -1444.086)" fill="#2b478b"></path></g><g id="Group_949" data-name="Group 949" transform="translate(1349.108 167.257)"><path id="Path_1443" data-name="Path 1443" d="M3584.975,1353.412l-22.071-13.3a5.71,5.71,0,0,1-2.7-5.314q.338-4.091.337-8.266a95.87,95.87,0,0,0-1.153-15.154,5.634,5.634,0,0,1,2.671-5.764l23.055-13.917a5.532,5.532,0,0,0,2.109-7.225l-10.853-22.1a5.47,5.47,0,0,0-6.748-2.727l-23.308,8.463a5.492,5.492,0,0,1-6.326-1.856,99.569,99.569,0,0,0-22.886-21.48,5.67,5.67,0,0,1-2.109-6.579l5.174-14.17a5.727,5.727,0,0,0-2.812-7.029l-21.958-10.74a5.008,5.008,0,0,0-1.377-.478,5.5,5.5,0,0,0-5.848,2.586l-9.953,16.476-2.418,4.02a98.533,98.533,0,0,0-13.889-.984,99.933,99.933,0,0,0-18.5,1.715,5.492,5.492,0,0,1-5.764-2.559l-11.19-18.585a5.692,5.692,0,0,0-7.394-2.165l-16.9,8.294-4.836,2.39a5.766,5.766,0,0,0-2.9,7.141l7.057,19.484a5.484,5.484,0,0,1-1.687,6.242,98.815,98.815,0,0,0-14.874,15.014,17.245,17.245,0,0,0-1.124,1.378,3.041,3.041,0,0,1-.394.45,5.619,5.619,0,0,1-6.073,1.406l-23.027-8.35a4.108,4.108,0,0,0-.787-.225,5.714,5.714,0,0,0-6.213,3.036l-10.74,21.874a5.686,5.686,0,0,0,2.165,7.367l23.027,13.861a5.5,5.5,0,0,1,2.615,5.651,100.5,100.5,0,0,0-1.153,15.238q0,4.133.338,8.182a5.793,5.793,0,0,1-2.784,5.427l-22.155,13.383a5.529,5.529,0,0,0-2.109,7.169l10.769,21.846a5.777,5.777,0,0,0,7.169,2.9l18.444-6.692a5.675,5.675,0,0,1,6.664,2.165,99.3,99.3,0,0,0,20.609,22.633,5.64,5.64,0,0,1,1.8,6.382l-7.535,20.749a5.834,5.834,0,0,0,2.9,7.2l21.79,10.712a5.576,5.576,0,0,0,7.253-2.136l.591-.956,11.555-19.147a5.7,5.7,0,0,1,5.933-2.671h.028a98.756,98.756,0,0,0,17.432,1.546c3.177,0,6.3-.168,9.419-.45a5.593,5.593,0,0,1,5.37,2.671l11.358,18.866a5.787,5.787,0,0,0,7.507,2.221l21.761-10.712a6.249,6.249,0,0,0,1.6-1.181,5.762,5.762,0,0,0,1.237-5.848l-5.68-15.548a5.756,5.756,0,0,1,.984-5.567,6.169,6.169,0,0,1,1.181-1.069,98.944,98.944,0,0,0,27.61-27.722,5.568,5.568,0,0,1,5.623-2.418,5.7,5.7,0,0,1,.927.253l18.641,6.776a5.664,5.664,0,0,0,7-2.811l.253-.506,10.487-21.311A5.765,5.765,0,0,0,3584.975,1353.412Zm-174.233-42.033a66.235,66.235,0,0,1,4.442-11.5c3.655-7.338,12.68-16.419,20.047-20.046.788-.394,1.574-.759,2.362-1.125,48.19-21.649,94.666,25.669,71.3,73.888-3.065,6.3-9.84,13.692-16.448,18.275a35.124,35.124,0,0,1-4.5,2.643,61.174,61.174,0,0,1-19.934,5.9C3430.846,1383.552,3400.255,1349.392,3410.743,1311.38Z" transform="translate(-3335.953 -1205.66)" fill="#afcdfb"></path></g><g id="Group_955" data-name="Group 955" transform="translate(1396.026 242.084)"><g id="Group_952" data-name="Group 952" transform="translate(0 0)"><path id="Path_1449" data-name="Path 1449" d="M3841.545,2218.08a1.615,1.615,0,0,1,.288,1.728.014.014,0,0,1,0,.009c-.417,1.151-1.793,2.437-3.393,3.722-.2.165-.386.315-.544.454-.042.036-.083.073-.122.109l-.094.085c-1.491,1.375-.93,1.69-3.609,4.479-3.055,3.178-5.158,3.236-5.757,2.946-.506-.247.522-1.933,1.662-3.828.055-.091.109-.184.166-.276.152-.251.3-.508.453-.76,1.336-2.281.993-3.351.676-6.744-.258-2.758-4.29-15.407-4.29-15.407l5.854-1.008s1.763,10.073,3.706,11.624c1.039.827,2.2.837,3.2,1.45q.106.063.208.131A7.7,7.7,0,0,1,3841.545,2218.08Z" transform="translate(-3776.768 -2081.022)" fill="#e49963"></path><path id="Path_1450" data-name="Path 1450" d="M3846.415,2271.1a1.615,1.615,0,0,1,.288,1.728.016.016,0,0,1,0,.009,12.449,12.449,0,0,1-3.4,3.71c-.2.167-.38.321-.539.466-.042.036-.083.073-.122.109l-.094.085c-1.491,1.375-.93,1.69-3.609,4.479-3.055,3.178-5.158,3.236-5.757,2.946-.506-.247.522-1.933,1.662-3.828a13.013,13.013,0,0,0,5.446-4.013c1.839-2.347,3.066-5.363,4.319-7.11q.106.063.208.131A7.692,7.692,0,0,1,3846.415,2271.1Z" transform="translate(-3781.637 -2134.044)" fill="#c65447"></path><path id="Path_1451" data-name="Path 1451" d="M3590.717,2207.2c-.362,1.807-2.937,1.505-5.816.8s-2.194.133-6.29-.321-5.337-1.981-5.462-2.59c-.112-.54,1.912-.731,4.083-.981.273-.031.547-.065.821-.1,2.451-.307,4.246-1.889,6.472-3.188,2.109-1.23,5.255-6.243,5.255-6.243l5.617.445s-2.948,4.477-4.088,6.423a6.792,6.792,0,0,0-.552,3.828A7.219,7.219,0,0,1,3590.717,2207.2Z" transform="translate(-3573.146 -2073.796)" fill="#e49963"></path><path id="Path_1452" data-name="Path 1452" d="M3584.9,2246.645c-2.878-.7-2.194.133-6.29-.32s-5.337-1.981-5.462-2.59c-.112-.541,1.912-.731,4.083-.981l.02.042a11.55,11.55,0,0,0,5.866,1.823c2.779.068,5.722-.729,7.641-.7a7.217,7.217,0,0,1-.043,1.921C3590.355,2247.649,3587.78,2247.348,3584.9,2246.645Z" transform="translate(-3573.146 -2112.441)" fill="#c65447"></path><path id="Path_1453" data-name="Path 1453" d="M3686.934,1825.5s-1.338-3.279-2.81-3.412-6.156-.87-6.49-.2a4.63,4.63,0,0,0,1,3.948c1,.87,7.227,2.275,7.227,2.275Z" transform="translate(-3656.865 -1774.601)" fill="#e49963"></path><path id="Path_1454" data-name="Path 1454" d="M3770.8,2040.27l12.106,32.579a11.08,11.08,0,0,0,3.643-.333,15.706,15.706,0,0,0,3.521-1.715s-3-31.282-8.509-37.789S3770.8,2040.27,3770.8,2040.27Z" transform="translate(-3731.707 -1942.786)" fill="#aa413e"></path><path id="Path_1455" data-name="Path 1455" d="M3714.408,1971.186s-34.785-11.762-42.543-9.26-31.051,48.846-31.051,48.846a4.5,4.5,0,0,0,1.961,1.238,18.511,18.511,0,0,0,4.566.468s21.021-18.019,23.524-23.273,3.5-10.261,6.006-9.76,32.283,12.262,39.04,5.256,4.99-16.112,4.99-16.112Z" transform="translate(-3627.429 -1886.882)" fill="#c65447"></path><path id="Path_1456" data-name="Path 1456" d="M3892.044,1613.539a19.774,19.774,0,0,1-1.481-6.816c.047.361.673,4.941,2.434,7.533,7.234,4.75,21.1,20.609,20.826,23.614,0,0,4.884-8.284,4.968-8.333,0,0,9.01-11.457-1.668-18.019-5.427-3.335-5.4-7.616-5.172-11.334s-1.48-19.726-12.352-15.538a7.086,7.086,0,0,0-2.526-.659,2.134,2.134,0,0,1,.963.457,8.437,8.437,0,0,0-4.566.873C3889.484,1587.582,3885.918,1607.9,3892.044,1613.539Z" transform="translate(-3826.322 -1583.953)" fill="#b5453c"></path><path id="Path_1457" data-name="Path 1457" d="M3912.389,1694.913c-.036.016,3.493,1.849,6.148,1.123,2.5-.681,4.128-3.918,4.094-3.926-1.058-.21-1.362-1.663-1.34-7.908l-.478.094-8.038,1.592s.183,2.53.188,4.912C3912.968,1692.8,3912.847,1694.7,3912.389,1694.913Z" transform="translate(-3845.285 -1664.372)" fill="#e49963"></path><path id="Path_1458" data-name="Path 1458" d="M3914.341,1686.27s.183,2.53.188,4.912c4.5-.127,6.876-4.23,7.85-6.5Z" transform="translate(-3846.851 -1664.754)" fill="#d68d5d"></path><path id="Path_1459" data-name="Path 1459" d="M3902.678,1613.274a23.638,23.638,0,0,0,2.923-6.909c.4-2.274-.754-10.7-9.223-9.488a11.506,11.506,0,0,0-4.772,1.8c-1.839,1.242-4.492,3.923-1.525,11.277l.771,2.484Z" transform="translate(-3826.321 -1594.225)" fill="#b5453c"></path><path id="Path_1460" data-name="Path 1460" d="M3892.372,1631.306s10.642.175,10.65-6.454,1.385-11.071-5.409-11.463-8.117,2.136-8.658,4.348S3889.6,1631.089,3892.372,1631.306Z" transform="translate(-3826.385 -1607.534)" fill="#e49963"></path><path id="Path_1461" data-name="Path 1461" d="M3908.736,1607.269s2.914,7.777,7.386,8.927,6.411-.048,6.411-.048a12.664,12.664,0,0,1-4.142-7.481S3910.934,1603.567,3908.736,1607.269Z" transform="translate(-3842.355 -1601.576)" fill="#b5453c"></path><path id="Path_1462" data-name="Path 1462" d="M3890.535,1610.781a9.4,9.4,0,0,0-2.707,3.425c-.531,1.688-.769,5.163-1.782,5.045,0,0-2.2-5.286.271-8.277C3888.935,1607.8,3890.535,1610.781,3890.535,1610.781Z" transform="translate(-3823.432 -1604.457)" fill="#b5453c"></path><path id="Path_1463" data-name="Path 1463" d="M3776.618,1755.593c1.05-4.4-2.521-12.942-6.248-20.013-3.382-6.409-6.892-11.607-7.208-11.42-8.919,5.294-9.726.892-9.726.892s-8.1,1.076-10.4,5.026c-3.173,5.461-6.629,21.848-10.024,21.606-1.558-.112-17.241-6.006-17.241-6.006s-2.613,2.448-2.112,5.451a163.745,163.745,0,0,0,14.292,8.494c3.464,1.75,6.594,2.975,8.065,2.628,2.983-.7,7.643-7.618,10.161-11.689l.017-.027c3.214,18.19-1.156,22.333,1.056,24.251,2.336,2.025,5.673-.964,13.014,2.217,4.815,2.089,11.5,5.109,16,5.634,2.359.277,4.12-.133,4.693-1.727C3782.625,1776.28,3774.616,1763.984,3776.618,1755.593Z" transform="translate(-3685.817 -1696.423)" fill="#699dee"></path><path id="Path_1464" data-name="Path 1464" d="M3902.485,1681.633s-.2.842-2.293.712c0,0-1.759-.109-1.705-1.034A5.659,5.659,0,0,1,3902.485,1681.633Z" transform="translate(-3834.133 -1661.88)" fill="#fff"></path><path id="Path_1465" data-name="Path 1465" d="M3968.525,1860.528c-.574,1.593-2.334,2-4.693,1.727-3.113-1.356-16.562-6.567-16.413-10.1.224-5.227,2.586-5.394.918-11.846-1.34-5.181,11.087-14.813,13.069-16.907,3.728,7.071,3.83,7.405,2.781,11.807C3962.185,1843.6,3970.193,1855.9,3968.525,1860.528Z" transform="translate(-3873.386 -1776.04)" fill="#4a75cb"></path><path id="Path_1466" data-name="Path 1466" d="M3804.4,1854.005c-2.518,4.071-7.178,10.987-10.161,11.689-1.471.347-4.6-.878-8.065-2.628a20.947,20.947,0,0,0,7.37.4c2.586-.25,3.337-3.42,7.424-8.176C3803.619,1852.212,3804.27,1852.988,3804.4,1854.005Z" transform="translate(-3744.036 -1799.867)" fill="#4a75cb"></path><path id="Path_1467" data-name="Path 1467" d="M3911.01,1902.572s-2.252-1.752-4.38-1.335-3.17,1.877-3.087,2.544a3.793,3.793,0,0,0,2.836,2.711c1.627.167,6.257-1,6.257-1Z" transform="translate(-3838.187 -1838.426)" fill="#e49963"></path><path id="Path_1468" data-name="Path 1468" d="M3942.391,1724.18s8.674.534,11.676,4.722c4.227,5.9,11.568,29.963,9.566,35.468l-26.389-.111s-.64-2.99.25-4.435,15.35-3.782,16.017-4.449-8.342-13.014-8.342-15.016S3942.391,1724.18,3942.391,1724.18Z" transform="translate(-3865.046 -1696.443)" fill="#699dee"></path></g><g id="Group_954" data-name="Group 954" transform="translate(32.852 55.844)"><g id="Group_953" data-name="Group 953"><path id="Path_1469" data-name="Path 1469" d="M3771.129,1866.276h-31.9l5.76,20.085h31.948Z" transform="translate(-3739.23 -1866.276)" fill="#1c468a"></path><rect id="Rectangle_255" data-name="Rectangle 255" width="41.767" height="0.783" transform="translate(5.869 19.302)" fill="#163560"></rect></g><path id="Path_1470" data-name="Path 1470" d="M3821.981,1910.212a1.832,1.832,0,0,0-1.645-1.278.93.93,0,0,0-.912,1.278,1.831,1.831,0,0,0,1.645,1.279A.93.93,0,0,0,3821.981,1910.212Z" transform="translate(-3803.521 -1900.496)" fill="#163560"></path></g></g><g id="Group_960" data-name="Group 960" transform="translate(1216.276 127.475)"><g id="Group_958" data-name="Group 958" transform="translate(69.227 224.052)"><path id="Rectangle_256" data-name="Rectangle 256" d="M7.451,0h41.81a7.451,7.451,0,0,1,7.451,7.451v0A7.451,7.451,0,0,1,49.262,14.9H7.451A7.451,7.451,0,0,1,0,7.452v0A7.451,7.451,0,0,1,7.451,0Z" transform="translate(0.594)" fill="#f99746"></path><path id="Path_1471" data-name="Path 1471" d="M3074.108,2188.084v1.55a3.2,3.2,0,0,1-3.2,3.2H3020.59a3.2,3.2,0,0,1-3.2-3.2v-1.677h55.8A3.352,3.352,0,0,1,3074.108,2188.084Z" transform="translate(-3016.802 -2177.926)" fill="#ed7d2b"></path><g id="Group_956" data-name="Group 956" transform="translate(0 14.825)"><path id="Path_1472" data-name="Path 1472" d="M3027.1,2212.276l-2.269,8.592,0,0-9.444,35.761h-.993l5.458-29.669c.006-.029.013-.059.019-.091l2.7-14.673Z" transform="translate(-3014.394 -2212.199)" fill="#e8c6a7"></path></g><path id="Path_1473" data-name="Path 1473" d="M3049.314,2212.276l-2.268,8.592,0,0c-.13.064-4.26,2.2-4.96,6l2.7-14.673Z" transform="translate(-3036.605 -2197.374)" fill="#c69d7b"></path><g id="Group_957" data-name="Group 957" transform="translate(44.598 14.825)"><path id="Path_1474" data-name="Path 1474" d="M3252.57,2256.632h-.993l-7.695-29.131v-.005l-1.75-6.624,0,0-2.269-8.592,4.532-.077,1.544,8.39,1.156,6.284c.005.032.013.061.019.091Z" transform="translate(-3239.861 -2212.199)" fill="#e8c6a7"></path></g><path id="Path_1475" data-name="Path 1475" d="M3226.446,2269.333c-.005,0-.011,0-.016-.011C3226.409,2269.285,3226.414,2269.293,3226.446,2269.333Z" transform="translate(-3184.478 -2243.179)" fill="#e8c6a7"></path><path id="Path_1476" data-name="Path 1476" d="M3245.937,2220.589a12.507,12.507,0,0,0-2.055,6.907l-1.75-6.624,0,0-2.269-8.592,4.532-.077Z" transform="translate(-3195.263 -2197.374)" fill="#c69d7b"></path></g><g id="man" transform="translate(0)"><path id="Path_1477" data-name="Path 1477" d="M2977.56,1286.58c1.17-1.219,1.964-.761,1.964-.761s13.81,10.6,15.128,11.375,19.28,1.292,19.28,1.292,7.195-.081,8.94,3.612a7.346,7.346,0,0,1-1.119,8,7.435,7.435,0,0,1-7.972,2.57c-6.584-1.921-19.682-5.844-22.133-7.343-5.454-3.336-15.3-16.658-15.3-16.658A5.319,5.319,0,0,1,2977.56,1286.58Z" transform="translate(-2914.643 -1230.115)" fill="#599dad"></path><g id="Group_959" data-name="Group 959"><path id="Path_1478" data-name="Path 1478" d="M2742.217,1050.707l-6.9-4.155a1.784,1.784,0,0,1-.843-1.66q.105-1.278.105-2.583a29.942,29.942,0,0,0-.36-4.735,1.761,1.761,0,0,1,.834-1.8l7.2-4.348a1.729,1.729,0,0,0,.659-2.258l-3.391-6.9a1.709,1.709,0,0,0-2.108-.852l-7.282,2.644a1.716,1.716,0,0,1-1.977-.58,31.1,31.1,0,0,0-7.15-6.711,1.772,1.772,0,0,1-.659-2.055l1.616-4.427a1.789,1.789,0,0,0-.878-2.2l-6.86-3.356a1.561,1.561,0,0,0-.43-.149,1.717,1.717,0,0,0-1.827.808l-3.11,5.148-.755,1.256a30.79,30.79,0,0,0-4.339-.307,31.218,31.218,0,0,0-5.78.536,1.715,1.715,0,0,1-1.8-.8l-3.5-5.806a1.777,1.777,0,0,0-2.31-.676l-5.279,2.591-1.511.747a1.8,1.8,0,0,0-.9,2.231l2.2,6.087a1.714,1.714,0,0,1-.527,1.95,30.865,30.865,0,0,0-4.647,4.691,5.378,5.378,0,0,0-.351.43.93.93,0,0,1-.123.141,1.755,1.755,0,0,1-1.9.439l-7.194-2.609a1.288,1.288,0,0,0-.246-.07,1.785,1.785,0,0,0-1.941.949l-3.356,6.834a1.777,1.777,0,0,0,.677,2.3l7.194,4.331a1.717,1.717,0,0,1,.817,1.766,31.4,31.4,0,0,0-.36,4.761q0,1.291.105,2.556a1.81,1.81,0,0,1-.869,1.7l-6.922,4.181a1.727,1.727,0,0,0-.659,2.24l3.364,6.825a1.805,1.805,0,0,0,2.24.9l5.762-2.091a1.772,1.772,0,0,1,2.082.677,31.018,31.018,0,0,0,6.439,7.071,1.763,1.763,0,0,1,.562,1.994l-2.354,6.483a1.823,1.823,0,0,0,.9,2.249l6.808,3.347a1.743,1.743,0,0,0,2.267-.667l.184-.3,3.61-5.982a1.782,1.782,0,0,1,1.854-.834h.009a30.879,30.879,0,0,0,5.446.483c.992,0,1.968-.053,2.943-.141a1.748,1.748,0,0,1,1.678.835l3.549,5.894a1.808,1.808,0,0,0,2.345.694l6.8-3.347a1.956,1.956,0,0,0,.5-.369,1.8,1.8,0,0,0,.386-1.827l-1.774-4.857a1.8,1.8,0,0,1,.307-1.74,1.929,1.929,0,0,1,.369-.334,30.917,30.917,0,0,0,8.626-8.661,1.732,1.732,0,0,1,2.047-.677l5.824,2.117a1.77,1.77,0,0,0,2.188-.879l.079-.158,3.276-6.658A1.8,1.8,0,0,0,2742.217,1050.707Zm-54.436-13.132a20.659,20.659,0,0,1,1.387-3.593,16.258,16.258,0,0,1,6.264-6.263c.246-.123.492-.237.738-.351,15.056-6.764,29.576,8.02,22.277,23.085a16.859,16.859,0,0,1-5.139,5.71,10.926,10.926,0,0,1-1.406.825,19.1,19.1,0,0,1-6.228,1.845A16.676,16.676,0,0,1,2687.781,1037.574Z" transform="translate(-2664.414 -1004.544)" fill="#ff574c"></path></g><path id="Path_1479" data-name="Path 1479" d="M2882.385,1269.286s.02-5.1-.785-6.582-2.65-3.337-3.7-2.744-1.373,5.562-1.051,6.452a39.448,39.448,0,0,0,2.709,4.228Z" transform="translate(-2834.731 -1209.347)" fill="#ffb27d"></path><path id="Path_1480" data-name="Path 1480" d="M3155.673,2101.266c1.137-.973.456-6.423.456-6.423s-5.854-4.683-6.659-1.1-5.561,5.2-8.269,5.635a2.928,2.928,0,0,0-2.606,1.886Z" transform="translate(-3044.801 -1877.214)" fill="#2c3a64"></path><path id="Path_1481" data-name="Path 1481" d="M3134.008,1711.563c-5.42.841-7.4-.449-7.4-.449.07-5.338-1.575-17.374-3.832-31.194-2.975-18.222-7.01-39.545-9.56-52.69-1.466-7.561-2.443-12.416-2.443-12.416l4.429-.087,22.091-.437s-1.653,24.449-1.2,36.524a22.556,22.556,0,0,0,.737,6.034C3140.593,1666,3134.008,1711.563,3134.008,1711.563Z" transform="translate(-3022.481 -1493.681)" fill="#35488b"></path><path id="Path_1482" data-name="Path 1482" d="M3146,1650.814c-3,5.616-10.519,20.08-13.317,29.106-2.975-18.222-7.01-39.545-9.559-52.69.126-4.968.72-9.31,1.986-12.5l22.091-.437S3145.547,1638.74,3146,1650.814Z" transform="translate(-3032.389 -1493.681)" fill="#2c3a64"></path><path id="Path_1483" data-name="Path 1483" d="M3061.607,2101.266c1.137-.973.456-6.423.456-6.423s-5.854-4.683-6.659-1.1-5.561,5.2-8.269,5.635a2.929,2.929,0,0,0-2.607,1.886Z" transform="translate(-2969.341 -1877.214)" fill="#2c3a64"></path><path id="Path_1484" data-name="Path 1484" d="M3062.221,1614.25s8.679,80.3,6.96,96.492c0,0,1.855,1.453,7.328,1.119,0,0,9.914-46.259,7.814-53.744-1.46-5.205,4.355-41.961,4.355-41.961Z" transform="translate(-2983.533 -1493.648)" fill="#35488b"></path><path id="Path_1485" data-name="Path 1485" d="M3103.277,1268.154s-11.035,5.511-16.509,3a16.746,16.746,0,0,1,4.875-4.213c-.055-.982-.086-1.868-.1-2.652-.049-2.611.082-4.081.082-4.081l4.759-3.462,3.229-2.349a20.889,20.889,0,0,0-.131,4.03A15.929,15.929,0,0,0,3103.277,1268.154Z" transform="translate(-3003.225 -1204.974)" fill="#ffb27d"></path><path id="Path_1486" data-name="Path 1486" d="M3118.792,1267.952s-2.574,5.13-7.938,5.862c-.049-2.611.082-4.081.082-4.081l4.759-3.462A10.717,10.717,0,0,1,3118.792,1267.952Z" transform="translate(-3022.537 -1214.501)" fill="#ed975d"></path><path id="Path_1487" data-name="Path 1487" d="M3100.607,1216.141s9.877,3.517,11.974-2.667,4.782-9.9-1.436-12.4-8.25-.564-9.451,1.33S3098.091,1215.066,3100.607,1216.141Z" transform="translate(-3013.44 -1161.241)" fill="#ffb27d"></path><path id="Path_1488" data-name="Path 1488" d="M3087.1,1368.968c-1.547,3.221-35.778,3.078-37.469.807-.688-.923-1.477-10.163-1.928-20.907-.249-5.952-.4-12.365-.367-18.08.051-9.325.573-16.789,1.888-17.359,7.336-3.182,11.872-5.207,21.455-4.915a7.948,7.948,0,0,1,6.918,4.458,57.847,57.847,0,0,1,5.819,23.181C3083.8,1351.519,3089.043,1364.908,3087.1,1368.968Z" transform="translate(-2971.586 -1248.365)" fill="#6bb7bf"></path><path id="Path_1489" data-name="Path 1489" d="M3058.405,1389.173s-1.114,16.069-10.707,24.408c-.249-5.952-.4-12.365-.367-18.08C3050.2,1391.668,3053.978,1388.909,3058.405,1389.173Z" transform="translate(-2971.586 -1313.078)" fill="#599dad"></path><path id="Path_1490" data-name="Path 1490" d="M2929.384,1300.009s-10.528.065-13.832,3.134c-2.367,2.2-17.581,14.19-18.548,14.029s-10.761-19.714-10.761-19.714-4.829.409-5.635,2.5c0,0,4.554,24.412,14.381,29.719,0,0,24.841-4.712,32.211-12.928C2931,1312.516,2929.384,1300.009,2929.384,1300.009Z" transform="translate(-2837.845 -1239.518)" fill="#6bb7bf"></path><path id="Path_1491" data-name="Path 1491" d="M3107.255,1184.122s.584,5.9,2.356,7.511,1.3,3.828,1.5,4.15,2.028-.626,2.35-.083c.743,1.248-.418,2.159-1.15,2.461s1.871,5.367,3.783,5.553c3.305.323,8.411-8.818,8.843-11.5.564-3.5-1.42-8.968-7.108-8.7C3108.886,1183.94,3107.075,1182,3107.255,1184.122Z" transform="translate(-3019.651 -1147.789)" fill="#2b478b"></path></g></g><g id="Group_961" data-name="Group 961" transform="translate(1560.141 107.075)"><rect id="Rectangle_257" data-name="Rectangle 257" width="10.553" height="65.742" transform="translate(0 30.896)" fill="#afcdfb"></rect><rect id="Rectangle_258" data-name="Rectangle 258" width="10.553" height="84.067" transform="translate(17.765 12.572)" fill="#afcdfb"></rect><rect id="Rectangle_259" data-name="Rectangle 259" width="10.553" height="49.844" transform="translate(36.631 46.795)" fill="#afcdfb"></rect><path id="Path_1492" data-name="Path 1492" d="M4503.063,901.411h-8.937a.925.925,0,1,0,0,1.849h8.938a.925.925,0,0,0,0-1.849Z" transform="translate(-4475.325 -901.411)" fill="#afcdfb"></path><path id="Path_1493" data-name="Path 1493" d="M4496.16,920.268a.925.925,0,1,0,0-1.849h-2.035a.925.925,0,1,0,0,1.849Z" transform="translate(-4475.325 -915.055)" fill="#afcdfb"></path><path id="Path_1494" data-name="Path 1494" d="M4597.295,1088.378h-8.937a.927.927,0,0,0-.924.925h0a.927.927,0,0,0,.924.925h8.938a.927.927,0,0,0,.925-.925h0A.927.927,0,0,0,4597.295,1088.378Z" transform="translate(-4550.918 -1051.395)" fill="#afcdfb"></path><path id="Path_1495" data-name="Path 1495" d="M4588.357,1107.237h2.036a.925.925,0,1,0,0-1.849h-2.036a.925.925,0,0,0,0,1.849Z" transform="translate(-4550.918 -1065.041)" fill="#afcdfb"></path></g></g><line id="Line_15" data-name="Line 15" x2="668" transform="translate(1111.5 412.5)" fill="none" stroke="#72acfb" stroke-linecap="round" stroke-width="3"></line></g></svg>